<svg width="20" height="20" viewBox="0 0 20 20" fill="none" xmlns="http://www.w3.org/2000/svg">
<path d="M6.50873 1.49861C7.55463 1.14341 8.69044 1.70334 9.04564 2.74924L9.68879 4.64301C10.044 5.68891 9.48406 6.82472 8.43816 7.17992L7.49128 7.5015C6.44538 7.8567 5.30956 7.29677 4.95436 6.25087L4.31122 4.3571C3.95602 3.3112 4.51594 2.17539 5.56184 1.82019L6.50873 1.49861Z" fill="#00BA61"/>
<rect x="14.7344" y="11.1447" width="6" height="5" rx="2" transform="rotate(71.2419 14.7344 11.1447)" fill="#00BA61"/>
<path d="M5.49994 6.5C7.7455 11.1414 8.99992 12.5 10.9999 13.5M4.5 5C5.53423 11.6014 6.78226 14.4726 11.5 16.5" stroke="#00BA61" stroke-width="2"/>
<path d="M9.25 13.625C8.58282 13.625 8.625 12.8965 8.625 12.375C8.625 12.0556 8.42305 12.0635 8.22222 11.9028C8.10855 11.8119 7.93739 11.9235 7.81944 11.8056C7.73376 11.7199 7.46987 11.4699 7.55555 11.5556C8.14244 12.1425 8.24561 13.1762 8.84722 13.7778C9.34253 14.2731 9.84107 14.8272 10.3194 15.3056C10.6611 15.6472 11.1939 15.9828 10.4375 15.5625C10.2765 15.4731 8.70091 14.5 9.375 14.5C10.123 14.5 12.3105 15 11.5625 15C11.2463 15 10.8229 14.6007 10.5556 14.4306C10.3764 14.3166 9.58571 14 10 14" stroke="#00BA61" stroke-linecap="round"/>
<path d="M11.75 17.125C11.3258 17.125 10.7287 16.875 11.5 16.875" stroke="#00BA61" stroke-linecap="round"/>
<path d="M4.25001 4.5C4.25001 4.60408 4.30857 4.95648 4.18057 4.99306C4.01843 5.03938 3.81217 5 4.12501 5" stroke="#00BA61" stroke-linecap="round"/>
<path d="M4.24999 3.75C4.62841 3.75 4.75578 4.51822 4.62499 4.8125C4.57703 4.92039 3.90171 5.95438 3.87499 5.5C3.84092 4.92092 4.2383 4.69714 4.38193 4.19444C4.48986 3.81669 5.07474 3.52513 5.37499 3.375" stroke="#00BA61" stroke-linecap="round"/>
</svg>
